<svg width="23" height="23" viewBox="0 0 23 23" fill="none" xmlns="http://www.w3.org/2000/svg">
<path d="M2.81819 10.575C2.38673 10.5762 1.96442 10.6995 1.60013 10.9307C1.23584 11.162 0.944453 11.4916 0.759681 11.8815C0.57491 12.2714 0.504305 12.7056 0.556034 13.134C0.607764 13.5623 0.779715 13.9673 1.05199 14.302L6.85632 21.4123C7.06327 21.6693 7.32855 21.8732 7.63012 22.007C7.9317 22.1409 8.26086 22.2008 8.59026 22.182C9.29478 22.1441 9.93084 21.7672 10.3364 21.1476L22.3934 1.7297C22.3954 1.72648 22.3975 1.72326 22.3996 1.72008C22.5127 1.54638 22.476 1.20215 22.2425 0.9859C22.1784 0.926515 22.1027 0.880891 22.0203 0.851838C21.9379 0.822784 21.8503 0.810916 21.7631 0.816965C21.6759 0.823014 21.5909 0.846851 21.5132 0.887009C21.4356 0.927167 21.367 0.982795 21.3117 1.05047C21.3073 1.05579 21.3029 1.06103 21.2983 1.06619L9.13858 14.8048C9.09231 14.8571 9.03611 14.8997 8.97326 14.9301C8.9104 14.9604 8.84213 14.978 8.77242 14.9818C8.7027 14.9856 8.63294 14.9755 8.56717 14.952C8.5014 14.9286 8.44094 14.8924 8.3893 14.8454L4.35372 11.173C3.93459 10.7888 3.38678 10.5754 2.81819 10.575Z" fill="#6DAE02"/>
</svg>
