<svg width="19" height="19" viewBox="0 0 19 19" fill="none" xmlns="http://www.w3.org/2000/svg">
<g clip-path="url(#clip0_164_1113)">
<path d="M18.5128 15.4145L3.62248 0.524166C2.97307 -0.125243 1.92022 -0.125243 1.27183 0.524166L0.487056 1.30772C-0.162352 1.95733 -0.162352 3.01018 0.487056 3.65858L15.3774 18.5489C16.027 19.1983 17.0799 19.1983 17.7282 18.5489L18.5118 17.7654C19.1624 17.117 19.1624 16.0639 18.5128 15.4145Z" fill="#F44336"/>
<path d="M15.3774 0.524014L0.487056 15.4143C-0.162352 16.0638 -0.162352 17.1168 0.487056 17.7652L1.27061 18.5488C1.92022 19.1982 2.97307 19.1982 3.62147 18.5488L18.5128 3.65944C19.1624 3.01003 19.1624 1.95718 18.5128 1.30878L17.7293 0.525231C17.0799 -0.125395 16.027 -0.125395 15.3774 0.524014Z" fill="#F44336"/>
</g>
<defs>
<clipPath id="clip0_164_1113">
<rect width="19" height="19" fill="white"/>
</clipPath>
</defs>
</svg>
