<svg width="54" height="54" viewBox="0 0 54 54" fill="none" xmlns="http://www.w3.org/2000/svg">
<g clip-path="url(#clip0_1_392)">
<path d="M53.197 11.2627L37.0221 27.3334L53.197 43.4042C53.4894 42.793 53.6668 42.1174 53.6668 41.3959V13.2709C53.6668 12.5494 53.4894 11.8738 53.197 11.2627Z" fill="black"/>
<path d="M48.9793 8.58398H5.02099C4.29943 8.58398 3.62391 8.76138 3.01276 9.05378L23.686 29.6228C25.5139 31.4508 28.4864 31.4508 30.3143 29.6228L50.9875 9.05378C50.3764 8.76138 49.7009 8.58398 48.9793 8.58398Z" fill="black"/>
<path d="M0.803288 11.2627C0.510892 11.8738 0.333496 12.5494 0.333496 13.2709V41.3959C0.333496 42.1175 0.510892 42.7931 0.803288 43.4042L16.9782 27.3334L0.803288 11.2627Z" fill="black"/>
<path d="M34.8127 29.543L32.5238 31.8318C29.4781 34.8776 24.5221 34.8776 21.4764 31.8318L19.1877 29.543L3.01276 45.6137C3.62391 45.9061 4.29943 46.0835 5.02099 46.0835H48.9793C49.7009 46.0835 50.3764 45.9061 50.9875 45.6137L34.8127 29.543Z" fill="black"/>
</g>
<defs>
<clipPath id="clip0_1_392">
<rect width="53.3333" height="53.3333" fill="white" transform="translate(0.333496 0.666992)"/>
</clipPath>
</defs>
</svg>
