<svg width="48" height="48" viewBox="0 0 48 48" fill="none" xmlns="http://www.w3.org/2000/svg">
<g clip-path="url(#clip0_1_387)">
<path d="M34.403 0.666992H13.5976C11.8643 0.666992 10.4456 2.08433 10.4456 3.81899V44.1803C10.4456 45.915 11.8643 47.3337 13.5976 47.3337H34.403C36.1363 47.3337 37.555 45.9177 37.555 44.1817V3.81899C37.555 2.08433 36.1363 0.666992 34.403 0.666992ZM20.6723 2.93899H27.3283C27.539 2.93899 27.7096 3.10966 27.7096 3.32166C27.7096 3.53233 27.539 3.70299 27.3283 3.70299H20.6723C20.4616 3.70299 20.291 3.53233 20.291 3.32166C20.291 3.10966 20.4616 2.93899 20.6723 2.93899ZM24.0003 45.7577C23.1296 45.7577 22.4243 45.0523 22.4243 44.1803C22.4243 43.3083 23.1296 42.6043 24.0003 42.6043C24.871 42.6043 25.5763 43.3083 25.5763 44.1803C25.5763 45.0523 24.871 45.7577 24.0003 45.7577ZM35.3616 41.5003H12.639V5.66566H35.3616V41.5003Z" fill="black"/>
</g>
<defs>
<clipPath id="clip0_1_387">
<rect width="46.6667" height="46.6667" fill="white" transform="translate(0.666931 0.666992)"/>
</clipPath>
</defs>
</svg>
