<svg width="17" height="16" viewBox="0 0 17 16" fill="none" xmlns="http://www.w3.org/2000/svg">
<path d="M15.725 11.3125C15.975 11.4375 16.1625 11.7188 16.1625 12.0312C16.1625 12.0625 16.1625 12.125 16.1625 12.1875L15.4125 15.4375C15.3188 15.7812 15.0375 16 14.6938 16C6.6625 16 0.19375 9.53125 0.19375 1.5C0.19375 1.15625 0.4125 0.875 0.75625 0.78125L4.00625 0.03125C4.06875 0.03125 4.13125 0 4.1625 0C4.475 0 4.75625 0.1875 4.88125 0.46875L6.38125 3.96875C6.4125 4.0625 6.44375 4.15625 6.44375 4.25C6.44375 4.5 6.31875 4.71875 6.1625 4.84375L4.25625 6.40625C5.4125 8.84375 7.35 10.7812 9.7875 11.9375L11.35 10.0312C11.475 9.875 11.6938 9.75 11.9125 9.75C12.0375 9.75 12.1313 9.78125 12.225 9.8125L15.725 11.3125Z" fill="#353535"/>
</svg>
