<svg width="36" height="37" viewBox="0 0 36 37" fill="none" xmlns="http://www.w3.org/2000/svg">
<path d="M10.1406 16.2505C10.2448 16.1567 10.3646 16.1099 10.5 16.1099C10.6354 16.1099 10.7552 16.1567 10.8594 16.2505L15.5 20.9067L20.1406 16.2505C20.2448 16.1567 20.3646 16.1099 20.5 16.1099C20.6354 16.1099 20.7552 16.1567 20.8594 16.2505C20.9531 16.3547 21 16.4744 21 16.6099C21 16.7453 20.9531 16.8651 20.8594 16.9692L15.8594 21.9692C15.7552 22.063 15.6354 22.1099 15.5 22.1099C15.3646 22.1099 15.2448 22.063 15.1406 21.9692L10.1406 16.9692C10.0469 16.8651 10 16.7453 10 16.6099C10 16.4744 10.0469 16.3547 10.1406 16.2505Z" fill="#7E7E7E"/>
<rect x="1" y="1.75" width="34" height="34" rx="17" stroke="#EEEEEE" stroke-width="2"/>
</svg>
