<svg width="25" height="25" viewBox="0 0 25 25" fill="none" xmlns="http://www.w3.org/2000/svg">
<path d="M3.81819 11.575C3.38673 11.5762 2.96442 11.6995 2.60013 11.9307C2.23584 12.162 1.94445 12.4916 1.75968 12.8815C1.57491 13.2714 1.5043 13.7056 1.55603 14.134C1.60776 14.5623 1.77971 14.9673 2.05199 15.302L7.85632 22.4123C8.06327 22.6693 8.32855 22.8732 8.63012 23.007C8.9317 23.1409 9.26086 23.2008 9.59026 23.182C10.2948 23.1441 10.9308 22.7672 11.3364 22.1476L23.3934 2.7297C23.3954 2.72648 23.3975 2.72326 23.3996 2.72008C23.5127 2.54638 23.476 2.20215 23.2425 1.9859C23.1784 1.92652 23.1027 1.88089 23.0203 1.85184C22.9379 1.82278 22.8503 1.81092 22.7631 1.81696C22.6759 1.82301 22.5909 1.84685 22.5132 1.88701C22.4356 1.92717 22.367 1.9828 22.3117 2.05047C22.3073 2.05579 22.3029 2.06103 22.2983 2.06619L10.1386 15.8048C10.0923 15.8571 10.0361 15.8997 9.97326 15.9301C9.9104 15.9604 9.84213 15.978 9.77242 15.9818C9.7027 15.9856 9.63294 15.9755 9.56717 15.952C9.5014 15.9286 9.44094 15.8924 9.3893 15.8454L5.35372 12.173C4.93459 11.7888 4.38678 11.5754 3.81819 11.575Z" fill="#FFE600"/>
</svg>
