<svg width="54" height="55" viewBox="0 0 54 55" fill="none" xmlns="http://www.w3.org/2000/svg">
<path d="M8.2478 25.4647C7.31583 25.4673 6.40365 25.7387 5.61678 26.2473C4.82991 26.756 4.20052 27.4812 3.80141 28.339C3.4023 29.1967 3.2498 30.1521 3.36153 31.0945C3.47327 32.0369 3.84468 32.9278 4.4328 33.6641L16.9701 49.3068C17.4172 49.8721 17.9902 50.3206 18.6416 50.6151C19.293 50.9096 20.0039 51.0416 20.7155 51C22.2372 50.9168 23.6111 50.0876 24.4871 48.7244L50.5303 6.00504C50.5346 5.99796 50.539 5.99087 50.5436 5.98389C50.788 5.60175 50.7087 4.84444 50.2043 4.36869C50.0658 4.23804 49.9024 4.13767 49.7244 4.07375C49.5463 4.00983 49.3572 3.98372 49.1689 3.99703C48.9805 4.01034 48.7968 4.06278 48.6291 4.15113C48.4614 4.23947 48.3132 4.36186 48.1937 4.51074C48.1843 4.52244 48.1747 4.53397 48.1648 4.54532L21.8998 34.7704C21.7999 34.8854 21.6785 34.979 21.5427 35.0459C21.407 35.1127 21.2595 35.1514 21.1089 35.1597C20.9583 35.168 20.8076 35.1457 20.6656 35.0942C20.5235 35.0427 20.3929 34.9629 20.2814 34.8595L11.5645 26.7802C10.6592 25.935 9.47594 25.4656 8.2478 25.4647Z" fill="white"/>
</svg>
